<?xml version="1.0" standalone="no"?>
<!DOCTYPE svg PUBLIC "-//W3C//DTD SVG 20010904//EN"
 "http://www.w3.org/TR/2001/REC-SVG-20010904/DTD/svg10.dtd">
<svg version="1.0" xmlns="http://www.w3.org/2000/svg"
 width="40.303738" height="44.000031" viewBox="0 0 279.000000 375.000000"
 preserveAspectRatio="xMidYMid meet">
<metadata>
Created by potrace 1.15, written by Peter Selinger 2001-2017
</metadata>
<g transform="translate(0.000000,375.000000) scale(0.100000,-0.100000)"
fill="#000000" stroke="none">
<path d="M1190 3447 c-80 -35 -139 -67 -285 -153 -49 -29 -128 -72 -175 -96
-138 -71 -125 25 -124 -916 2 -881 0 -857 62 -914 15 -14 95 -65 177 -113 83
-48 209 -123 280 -166 151 -91 203 -115 265 -124 59 -8 73 -2 275 117 94 55
232 137 307 182 76 44 138 86 138 91 0 6 -33 35 -72 65 -39 30 -101 79 -137
107 -36 29 -69 53 -74 53 -7 0 -54 -29 -295 -184 -68 -44 -117 -68 -134 -68
-15 0 -58 20 -95 44 -37 25 -90 57 -118 72 -27 16 -93 55 -146 88 l-97 60 -7
391 c-3 216 -5 506 -3 646 l3 255 105 67 c207 132 239 151 292 165 72 19 117
18 158 -4 19 -10 130 -76 245 -146 386 -235 560 -339 608 -365 61 -31 94 -73
118 -152 18 -57 19 -98 19 -593 0 -576 -3 -608 -55 -687 -13 -21 -48 -50 -77
-67 -29 -16 -125 -71 -213 -122 -88 -51 -216 -126 -285 -165 -69 -40 -181
-106 -250 -146 l-125 -74 -75 0 -75 0 -120 74 c-66 40 -178 109 -250 153 -71
43 -193 117 -270 164 -77 48 -178 109 -225 138 -86 52 -119 88 -142 155 -10
27 -13 231 -16 829 -1 435 -6 792 -11 792 -16 0 -86 -57 -137 -111 -58 -63
-95 -121 -129 -210 l-25 -63 0 -651 0 -650 31 -80 c59 -155 109 -213 263 -303
53 -31 262 -156 464 -278 234 -140 397 -232 450 -252 78 -30 93 -32 205 -32
138 0 119 -7 322 125 55 36 154 99 220 141 666 420 739 468 762 501 11 16 30
57 44 93 l24 65 3 669 3 669 -30 79 c-57 147 -127 229 -272 312 -40 24 -146
85 -234 136 -163 94 -310 179 -535 310 -192 111 -186 110 -330 110 -119 0
-128 -2 -200 -33z"/>
</g>
</svg>
