<svg id="svg" version="1.1" xmlns="http://www.w3.org/2000/svg" xmlns:xlink="http://www.w3.org/1999/xlink" width="400" height="537.6344086021505" viewBox="0, 0, 400,537.6344086021505"><g id="svgg"><path id="path0" d="M180.000 38.800 C 180.000 39.503,179.733 39.600,177.800 39.600 C 176.111 39.600,175.600 39.739,175.600 40.200 C 175.600 40.619,175.178 40.800,174.200 40.800 C 173.067 40.800,172.800 40.952,172.800 41.600 C 172.800 42.303,172.533 42.400,170.600 42.400 C 168.667 42.400,168.400 42.497,168.400 43.200 C 168.400 43.848,168.133 44.000,167.000 44.000 C 166.022 44.000,165.600 44.181,165.600 44.600 C 165.600 45.019,165.178 45.200,164.200 45.200 C 163.067 45.200,162.800 45.352,162.800 46.000 C 162.800 46.648,162.533 46.800,161.400 46.800 C 160.422 46.800,160.000 46.981,160.000 47.400 C 160.000 47.819,159.578 48.000,158.600 48.000 C 157.467 48.000,157.200 48.152,157.200 48.800 C 157.200 49.448,156.933 49.600,155.800 49.600 C 154.822 49.600,154.400 49.781,154.400 50.200 C 154.400 50.622,153.974 50.800,152.963 50.800 C 151.862 50.800,151.476 50.987,151.316 51.600 C 151.201 52.040,150.858 52.400,150.553 52.400 C 150.249 52.400,150.000 52.760,150.000 53.200 C 150.000 53.848,149.733 54.000,148.600 54.000 C 147.622 54.000,147.200 54.181,147.200 54.600 C 147.200 55.033,146.756 55.200,145.600 55.200 C 144.267 55.200,144.000 55.333,144.000 56.000 C 144.000 56.648,143.733 56.800,142.600 56.800 C 141.622 56.800,141.200 56.981,141.200 57.400 C 141.200 57.819,140.778 58.000,139.800 58.000 C 138.667 58.000,138.400 58.152,138.400 58.800 C 138.400 59.448,138.133 59.600,137.000 59.600 C 135.867 59.600,135.600 59.752,135.600 60.400 C 135.600 60.933,135.333 61.200,134.800 61.200 C 134.356 61.200,134.000 61.467,134.000 61.800 C 134.000 62.219,133.578 62.400,132.600 62.400 C 131.467 62.400,131.200 62.552,131.200 63.200 C 131.200 63.644,130.933 64.000,130.600 64.000 C 130.270 64.000,130.000 64.270,130.000 64.600 C 130.000 65.022,129.574 65.200,128.563 65.200 C 127.462 65.200,127.076 65.387,126.916 66.000 C 126.759 66.601,126.370 66.800,125.353 66.800 C 124.417 66.800,124.000 66.985,124.000 67.400 C 124.000 67.730,123.730 68.000,123.400 68.000 C 123.067 68.000,122.800 68.356,122.800 68.800 C 122.800 69.448,122.533 69.600,121.400 69.600 C 120.267 69.600,120.000 69.752,120.000 70.400 C 120.000 71.067,119.733 71.200,118.400 71.200 C 117.244 71.200,116.800 71.367,116.800 71.800 C 116.800 72.219,116.378 72.400,115.400 72.400 C 114.267 72.400,114.000 72.552,114.000 73.200 C 114.000 73.848,113.733 74.000,112.600 74.000 C 111.622 74.000,111.200 74.181,111.200 74.600 C 111.200 75.019,110.778 75.200,109.800 75.200 C 108.667 75.200,108.400 75.352,108.400 76.000 C 108.400 76.533,108.133 76.800,107.600 76.800 C 107.067 76.800,106.800 77.067,106.800 77.600 C 106.800 78.248,106.533 78.400,105.400 78.400 C 104.422 78.400,104.000 78.581,104.000 79.000 C 104.000 79.461,103.489 79.600,101.800 79.600 C 99.867 79.600,99.600 79.697,99.600 80.400 C 99.600 81.048,99.333 81.200,98.200 81.200 C 97.222 81.200,96.800 81.381,96.800 81.800 C 96.800 82.219,96.378 82.400,95.400 82.400 C 94.267 82.400,94.000 82.552,94.000 83.200 C 94.000 83.733,93.733 84.000,93.200 84.000 C 92.756 84.000,92.400 84.267,92.400 84.600 C 92.400 84.930,92.130 85.200,91.800 85.200 C 91.467 85.200,91.200 85.556,91.200 86.000 C 91.200 86.533,90.933 86.800,90.400 86.800 C 89.752 86.800,89.600 87.067,89.600 88.200 C 89.600 89.178,89.419 89.600,89.000 89.600 C 88.581 89.600,88.400 90.022,88.400 91.000 C 88.400 92.133,88.248 92.400,87.600 92.400 C 86.871 92.400,86.800 92.667,86.800 95.400 C 86.800 98.133,86.729 98.400,86.000 98.400 C 85.203 98.400,85.200 98.667,85.200 182.800 C 85.200 266.933,85.203 267.200,86.000 267.200 C 86.793 267.200,86.800 267.467,86.800 298.200 C 86.800 328.933,86.807 329.200,87.600 329.200 C 88.293 329.200,88.400 329.467,88.400 331.200 C 88.400 332.711,88.547 333.200,89.000 333.200 C 89.419 333.200,89.600 333.622,89.600 334.600 C 89.600 335.733,89.752 336.000,90.400 336.000 C 91.067 336.000,91.200 336.267,91.200 337.600 C 91.200 338.756,91.367 339.200,91.800 339.200 C 92.130 339.200,92.400 339.470,92.400 339.800 C 92.400 340.133,92.756 340.400,93.200 340.400 C 93.733 340.400,94.000 340.667,94.000 341.200 C 94.000 341.733,94.267 342.000,94.800 342.000 C 95.244 342.000,95.600 342.267,95.600 342.600 C 95.600 342.930,95.870 343.200,96.200 343.200 C 96.533 343.200,96.800 343.556,96.800 344.000 C 96.800 344.533,97.067 344.800,97.600 344.800 C 98.133 344.800,98.400 345.067,98.400 345.600 C 98.400 346.248,98.667 346.400,99.800 346.400 C 100.778 346.400,101.200 346.581,101.200 347.000 C 101.200 347.419,101.622 347.600,102.600 347.600 C 103.733 347.600,104.000 347.752,104.000 348.400 C 104.000 348.933,104.267 349.200,104.800 349.200 C 105.244 349.200,105.600 349.467,105.600 349.800 C 105.600 350.219,106.022 350.400,107.000 350.400 C 108.133 350.400,108.400 350.552,108.400 351.200 C 108.400 351.848,108.667 352.000,109.800 352.000 C 110.778 352.000,111.200 352.181,111.200 352.600 C 111.200 353.019,111.622 353.200,112.600 353.200 C 113.733 353.200,114.000 353.352,114.000 354.000 C 114.000 354.533,114.267 354.800,114.800 354.800 C 115.333 354.800,115.600 355.067,115.600 355.600 C 115.600 356.248,115.867 356.400,117.000 356.400 C 117.978 356.400,118.400 356.581,118.400 357.000 C 118.400 357.419,118.822 357.600,119.800 357.600 C 120.933 357.600,121.200 357.752,121.200 358.400 C 121.200 358.933,121.467 359.200,122.000 359.200 C 122.444 359.200,122.800 359.467,122.800 359.800 C 122.800 360.219,123.222 360.400,124.200 360.400 C 125.333 360.400,125.600 360.552,125.600 361.200 C 125.600 361.640,125.849 362.000,126.153 362.000 C 126.458 362.000,126.801 362.360,126.916 362.800 C 127.076 363.413,127.462 363.600,128.563 363.600 C 129.574 363.600,130.000 363.778,130.000 364.200 C 130.000 364.619,130.422 364.800,131.400 364.800 C 132.533 364.800,132.800 364.952,132.800 365.600 C 132.800 366.248,133.067 366.400,134.200 366.400 C 135.178 366.400,135.600 366.581,135.600 367.000 C 135.600 367.333,135.956 367.600,136.400 367.600 C 136.933 367.600,137.200 367.867,137.200 368.400 C 137.200 369.048,137.467 369.200,138.600 369.200 C 139.578 369.200,140.000 369.381,140.000 369.800 C 140.000 370.219,140.422 370.400,141.400 370.400 C 142.533 370.400,142.800 370.552,142.800 371.200 C 142.800 371.848,143.067 372.000,144.200 372.000 C 145.333 372.000,145.600 372.152,145.600 372.800 C 145.600 373.333,145.867 373.600,146.400 373.600 C 146.844 373.600,147.200 373.867,147.200 374.200 C 147.200 374.619,147.622 374.800,148.600 374.800 C 149.733 374.800,150.000 374.952,150.000 375.600 C 150.000 376.248,150.267 376.400,151.400 376.400 C 152.378 376.400,152.800 376.581,152.800 377.000 C 152.800 377.333,153.156 377.600,153.600 377.600 C 154.133 377.600,154.400 377.867,154.400 378.400 C 154.400 379.048,154.667 379.200,155.800 379.200 C 156.933 379.200,157.200 379.352,157.200 380.000 C 157.200 380.648,157.467 380.800,158.600 380.800 C 159.578 380.800,160.000 380.981,160.000 381.400 C 160.000 381.730,160.249 382.000,160.553 382.000 C 160.858 382.000,161.201 382.360,161.316 382.800 C 161.476 383.413,161.862 383.600,162.963 383.600 C 163.974 383.600,164.400 383.778,164.400 384.200 C 164.400 384.530,164.670 384.800,165.000 384.800 C 165.333 384.800,165.600 385.156,165.600 385.600 C 165.600 386.248,165.867 386.400,167.000 386.400 C 167.978 386.400,168.400 386.581,168.400 387.000 C 168.400 387.433,168.844 387.600,170.000 387.600 C 171.333 387.600,171.600 387.733,171.600 388.400 C 171.600 389.048,171.867 389.200,173.000 389.200 C 174.133 389.200,174.400 389.352,174.400 390.000 C 174.400 390.444,174.667 390.800,175.000 390.800 C 175.330 390.800,175.600 391.070,175.600 391.400 C 175.600 391.819,176.022 392.000,177.000 392.000 C 178.133 392.000,178.400 392.152,178.400 392.800 C 178.400 393.467,178.667 393.600,180.000 393.600 C 181.156 393.600,181.600 393.767,181.600 394.200 C 181.600 394.619,182.022 394.800,183.000 394.800 C 184.133 394.800,184.400 394.952,184.400 395.600 C 184.400 396.248,184.667 396.400,185.800 396.400 C 186.933 396.400,187.200 396.552,187.200 397.200 C 187.200 397.903,187.467 398.000,189.400 398.000 C 191.089 398.000,191.600 398.139,191.600 398.600 C 191.600 399.089,192.267 399.200,195.200 399.200 C 198.533 399.200,198.800 399.259,198.800 400.000 C 198.800 400.757,199.067 400.800,203.800 400.800 C 208.533 400.800,208.800 400.757,208.800 400.000 C 208.800 399.307,209.067 399.200,210.800 399.200 C 212.311 399.200,212.800 399.053,212.800 398.600 C 212.800 398.181,213.222 398.000,214.200 398.000 C 215.333 398.000,215.600 397.848,215.600 397.200 C 215.600 396.533,215.867 396.400,217.200 396.400 C 218.533 396.400,218.800 396.267,218.800 395.600 C 218.800 395.156,219.067 394.800,219.400 394.800 C 219.730 394.800,220.000 394.530,220.000 394.200 C 220.000 393.781,220.422 393.600,221.400 393.600 C 222.533 393.600,222.800 393.448,222.800 392.800 C 222.800 392.133,223.067 392.000,224.400 392.000 C 225.556 392.000,226.000 391.833,226.000 391.400 C 226.000 390.996,226.404 390.800,227.237 390.800 C 228.138 390.800,228.532 390.583,228.684 390.000 C 228.799 389.560,229.142 389.200,229.447 389.200 C 229.751 389.200,230.000 388.840,230.000 388.400 C 230.000 387.752,230.267 387.600,231.400 387.600 C 232.378 387.600,232.800 387.419,232.800 387.000 C 232.800 386.567,233.244 386.400,234.400 386.400 C 235.733 386.400,236.000 386.267,236.000 385.600 C 236.000 385.156,236.267 384.800,236.600 384.800 C 236.930 384.800,237.200 384.530,237.200 384.200 C 237.200 383.781,237.622 383.600,238.600 383.600 C 239.733 383.600,240.000 383.448,240.000 382.800 C 240.000 382.267,240.267 382.000,240.800 382.000 C 241.244 382.000,241.600 381.733,241.600 381.400 C 241.600 380.981,242.022 380.800,243.000 380.800 C 244.133 380.800,244.400 380.648,244.400 380.000 C 244.400 379.352,244.667 379.200,245.800 379.200 C 246.933 379.200,247.200 379.048,247.200 378.400 C 247.200 377.867,247.467 377.600,248.000 377.600 C 248.444 377.600,248.800 377.333,248.800 377.000 C 248.800 376.581,249.222 376.400,250.200 376.400 C 251.333 376.400,251.600 376.248,251.600 375.600 C 251.600 374.952,251.867 374.800,253.000 374.800 C 253.978 374.800,254.400 374.619,254.400 374.200 C 254.400 373.781,254.822 373.600,255.800 373.600 C 256.933 373.600,257.200 373.448,257.200 372.800 C 257.200 372.267,257.467 372.000,258.000 372.000 C 258.533 372.000,258.800 371.733,258.800 371.200 C 258.800 370.552,259.067 370.400,260.200 370.400 C 261.178 370.400,261.600 370.219,261.600 369.800 C 261.600 369.381,262.022 369.200,263.000 369.200 C 264.133 369.200,264.400 369.048,264.400 368.400 C 264.400 367.752,264.667 367.600,265.800 367.600 C 266.778 367.600,267.200 367.419,267.200 367.000 C 267.200 366.578,267.626 366.400,268.637 366.400 C 269.738 366.400,270.124 366.213,270.284 365.600 C 270.399 365.160,270.742 364.800,271.047 364.800 C 271.351 364.800,271.600 364.530,271.600 364.200 C 271.600 363.781,272.022 363.600,273.000 363.600 C 274.133 363.600,274.400 363.448,274.400 362.800 C 274.400 362.133,274.667 362.000,276.000 362.000 C 277.333 362.000,277.600 361.867,277.600 361.200 C 277.600 360.756,277.867 360.400,278.200 360.400 C 278.530 360.400,278.800 360.130,278.800 359.800 C 278.800 359.381,279.222 359.200,280.200 359.200 C 281.333 359.200,281.600 359.048,281.600 358.400 C 281.600 357.867,281.867 357.600,282.400 357.600 C 282.844 357.600,283.200 357.333,283.200 357.000 C 283.200 356.581,283.622 356.400,284.600 356.400 C 285.733 356.400,286.000 356.248,286.000 355.600 C 286.000 354.952,286.267 354.800,287.400 354.800 C 288.533 354.800,288.800 354.648,288.800 354.000 C 288.800 353.467,289.067 353.200,289.600 353.200 C 290.044 353.200,290.400 352.933,290.400 352.600 C 290.400 352.181,290.822 352.000,291.800 352.000 C 292.933 352.000,293.200 351.848,293.200 351.200 C 293.200 350.552,293.467 350.400,294.600 350.400 C 295.578 350.400,296.000 350.219,296.000 349.800 C 296.000 349.381,296.422 349.200,297.400 349.200 C 298.533 349.200,298.800 349.048,298.800 348.400 C 298.800 347.867,299.067 347.600,299.600 347.600 C 300.044 347.600,300.400 347.333,300.400 347.000 C 300.400 346.581,300.822 346.400,301.800 346.400 L 303.200 346.400 303.200 343.400 L 303.200 340.400 301.800 340.400 C 300.822 340.400,300.400 340.219,300.400 339.800 C 300.400 339.467,300.044 339.200,299.600 339.200 C 299.067 339.200,298.800 338.933,298.800 338.400 C 298.800 337.956,298.533 337.600,298.200 337.600 C 297.870 337.600,297.600 337.330,297.600 337.000 C 297.600 336.667,297.244 336.400,296.800 336.400 C 296.267 336.400,296.000 336.133,296.000 335.600 C 296.000 335.156,295.733 334.800,295.400 334.800 C 295.070 334.800,294.800 334.530,294.800 334.200 C 294.800 333.767,294.356 333.600,293.200 333.600 C 291.867 333.600,291.600 333.467,291.600 332.800 C 291.600 332.356,291.333 332.000,291.000 332.000 C 290.667 332.000,290.400 331.644,290.400 331.200 C 290.400 330.667,290.133 330.400,289.600 330.400 C 289.156 330.400,288.800 330.133,288.800 329.800 C 288.800 329.381,288.378 329.200,287.400 329.200 C 286.267 329.200,286.000 329.048,286.000 328.400 C 286.000 327.867,285.733 327.600,285.200 327.600 C 284.756 327.600,284.400 327.333,284.400 327.000 C 284.400 326.670,284.130 326.400,283.800 326.400 C 283.467 326.400,283.200 326.044,283.200 325.600 C 283.200 324.958,282.933 324.800,281.847 324.800 C 280.830 324.800,280.441 324.601,280.284 324.000 C 280.169 323.560,279.788 323.200,279.437 323.200 C 279.087 323.200,278.800 322.930,278.800 322.600 C 278.800 322.270,278.530 322.000,278.200 322.000 C 277.867 322.000,277.600 321.644,277.600 321.200 C 277.600 320.533,277.333 320.400,276.000 320.400 C 274.844 320.400,274.400 320.233,274.400 319.800 C 274.400 319.470,274.130 319.200,273.800 319.200 C 273.467 319.200,273.200 318.844,273.200 318.400 C 273.200 317.867,272.933 317.600,272.400 317.600 C 271.867 317.600,271.600 317.333,271.600 316.800 C 271.600 316.356,271.333 316.000,271.000 316.000 C 270.670 316.000,270.400 315.730,270.400 315.400 C 270.400 315.067,270.044 314.800,269.600 314.800 C 269.067 314.800,268.800 314.533,268.800 314.000 C 268.800 313.352,268.533 313.200,267.400 313.200 C 266.422 313.200,266.000 313.019,266.000 312.600 C 266.000 312.267,265.644 312.000,265.200 312.000 C 264.667 312.000,264.400 311.733,264.400 311.200 C 264.400 310.476,264.133 310.400,261.600 310.400 C 259.067 310.400,258.800 310.476,258.800 311.200 C 258.800 311.644,258.533 312.000,258.200 312.000 C 257.870 312.000,257.600 312.270,257.600 312.600 C 257.600 313.022,257.174 313.200,256.163 313.200 C 255.062 313.200,254.676 313.387,254.516 314.000 C 254.359 314.601,253.970 314.800,252.953 314.800 C 252.017 314.800,251.600 314.985,251.600 315.400 C 251.600 315.730,251.330 316.000,251.000 316.000 C 250.667 316.000,250.400 316.356,250.400 316.800 C 250.400 317.333,250.133 317.600,249.600 317.600 C 249.067 317.600,248.800 317.867,248.800 318.400 C 248.800 319.048,248.533 319.200,247.400 319.200 C 246.422 319.200,246.000 319.381,246.000 319.800 C 246.000 320.133,245.644 320.400,245.200 320.400 C 244.667 320.400,244.400 320.667,244.400 321.200 C 244.400 321.848,244.133 322.000,243.000 322.000 C 242.022 322.000,241.600 322.181,241.600 322.600 C 241.600 323.019,241.178 323.200,240.200 323.200 C 239.067 323.200,238.800 323.352,238.800 324.000 C 238.800 324.533,238.533 324.800,238.000 324.800 C 237.467 324.800,237.200 325.067,237.200 325.600 C 237.200 326.248,236.933 326.400,235.800 326.400 C 234.822 326.400,234.400 326.581,234.400 327.000 C 234.400 327.419,233.978 327.600,233.000 327.600 C 231.867 327.600,231.600 327.752,231.600 328.400 C 231.600 328.933,231.333 329.200,230.800 329.200 C 230.356 329.200,230.000 329.467,230.000 329.800 C 230.000 330.204,229.596 330.400,228.763 330.400 C 227.862 330.400,227.468 330.617,227.316 331.200 C 227.159 331.801,226.770 332.000,225.753 332.000 C 224.667 332.000,224.400 332.158,224.400 332.800 C 224.400 333.244,224.133 333.600,223.800 333.600 C 223.470 333.600,223.200 333.870,223.200 334.200 C 223.200 334.633,222.756 334.800,221.600 334.800 C 220.267 334.800,220.000 334.933,220.000 335.600 C 220.000 336.044,219.733 336.400,219.400 336.400 C 219.070 336.400,218.800 336.670,218.800 337.000 C 218.800 337.419,218.378 337.600,217.400 337.600 C 216.267 337.600,216.000 337.752,216.000 338.400 C 216.000 338.933,215.733 339.200,215.200 339.200 C 214.756 339.200,214.400 339.467,214.400 339.800 C 214.400 340.219,213.978 340.400,213.000 340.400 C 211.867 340.400,211.600 340.552,211.600 341.200 C 211.600 341.733,211.333 342.000,210.800 342.000 C 210.267 342.000,210.000 342.267,210.000 342.800 C 210.000 343.448,209.733 343.600,208.600 343.600 C 207.622 343.600,207.200 343.781,207.200 344.200 C 207.200 344.530,206.930 344.800,206.600 344.800 C 206.267 344.800,206.000 345.156,206.000 345.600 C 206.000 346.359,205.733 346.400,200.800 346.400 C 195.867 346.400,195.600 346.359,195.600 345.600 C 195.600 345.156,195.333 344.800,195.000 344.800 C 194.670 344.800,194.400 344.530,194.400 344.200 C 194.400 343.767,193.956 343.600,192.800 343.600 C 191.467 343.600,191.200 343.467,191.200 342.800 C 191.200 342.152,190.933 342.000,189.800 342.000 C 188.667 342.000,188.400 341.848,188.400 341.200 C 188.400 340.756,188.133 340.400,187.800 340.400 C 187.470 340.400,187.200 340.130,187.200 339.800 C 187.200 339.467,186.844 339.200,186.400 339.200 C 185.867 339.200,185.600 338.933,185.600 338.400 C 185.600 337.752,185.333 337.600,184.200 337.600 C 183.222 337.600,182.800 337.419,182.800 337.000 C 182.800 336.581,182.378 336.400,181.400 336.400 C 180.267 336.400,180.000 336.248,180.000 335.600 C 180.000 335.067,179.733 334.800,179.200 334.800 C 178.756 334.800,178.400 334.533,178.400 334.200 C 178.400 333.781,177.978 333.600,177.000 333.600 C 175.867 333.600,175.600 333.448,175.600 332.800 C 175.600 332.152,175.333 332.000,174.200 332.000 C 173.067 332.000,172.800 331.848,172.800 331.200 C 172.800 330.552,172.533 330.400,171.400 330.400 C 170.422 330.400,170.000 330.219,170.000 329.800 C 170.000 329.467,169.644 329.200,169.200 329.200 C 168.667 329.200,168.400 328.933,168.400 328.400 C 168.400 327.752,168.133 327.600,167.000 327.600 C 166.022 327.600,165.600 327.419,165.600 327.000 C 165.600 326.581,165.178 326.400,164.200 326.400 C 163.067 326.400,162.800 326.248,162.800 325.600 C 162.800 324.958,162.533 324.800,161.447 324.800 C 160.430 324.800,160.041 324.601,159.884 324.000 C 159.769 323.560,159.388 323.200,159.037 323.200 C 158.687 323.200,158.400 322.930,158.400 322.600 C 158.400 322.181,157.978 322.000,157.000 322.000 C 155.867 322.000,155.600 321.848,155.600 321.200 C 155.600 320.552,155.333 320.400,154.200 320.400 C 153.222 320.400,152.800 320.219,152.800 319.800 C 152.800 319.467,152.444 319.200,152.000 319.200 C 151.467 319.200,151.200 318.933,151.200 318.400 C 151.200 317.752,150.933 317.600,149.800 317.600 C 148.667 317.600,148.400 317.448,148.400 316.800 C 148.400 316.267,148.133 316.000,147.600 316.000 C 147.156 316.000,146.800 315.733,146.800 315.400 C 146.800 314.981,146.378 314.800,145.400 314.800 C 144.267 314.800,144.000 314.648,144.000 314.000 C 144.000 313.556,143.733 313.200,143.400 313.200 C 143.070 313.200,142.800 312.930,142.800 312.600 C 142.800 312.167,142.356 312.000,141.200 312.000 C 139.867 312.000,139.600 311.867,139.600 311.200 C 139.600 310.552,139.333 310.400,138.200 310.400 C 137.222 310.400,136.800 310.219,136.800 309.800 C 136.800 309.470,136.530 309.200,136.200 309.200 C 135.672 309.200,135.600 305.822,135.600 281.200 C 135.600 253.467,135.592 253.200,134.800 253.200 C 133.535 253.200,133.535 125.815,134.800 125.484 C 135.240 125.369,135.600 124.988,135.600 124.637 C 135.600 124.287,135.870 124.000,136.200 124.000 C 136.533 124.000,136.800 123.644,136.800 123.200 C 136.800 122.552,137.067 122.400,138.200 122.400 C 139.178 122.400,139.600 122.219,139.600 121.800 C 139.600 121.467,139.956 121.200,140.400 121.200 C 140.933 121.200,141.200 120.933,141.200 120.400 C 141.200 119.752,141.467 119.600,142.600 119.600 C 143.578 119.600,144.000 119.419,144.000 119.000 C 144.000 118.581,144.422 118.400,145.400 118.400 C 146.533 118.400,146.800 118.248,146.800 117.600 C 146.800 117.067,147.067 116.800,147.600 116.800 C 148.044 116.800,148.400 116.533,148.400 116.200 C 148.400 115.781,148.822 115.600,149.800 115.600 C 150.933 115.600,151.200 115.448,151.200 114.800 C 151.200 114.152,151.467 114.000,152.600 114.000 C 153.733 114.000,154.000 113.848,154.000 113.200 C 154.000 112.667,154.267 112.400,154.800 112.400 C 155.244 112.400,155.600 112.133,155.600 111.800 C 155.600 111.381,156.022 111.200,157.000 111.200 C 158.133 111.200,158.400 111.048,158.400 110.400 C 158.400 109.867,158.667 109.600,159.200 109.600 C 159.644 109.600,160.000 109.333,160.000 109.000 C 160.000 108.581,160.422 108.400,161.400 108.400 C 162.533 108.400,162.800 108.248,162.800 107.600 C 162.800 107.156,163.067 106.800,163.400 106.800 C 163.733 106.800,164.000 106.444,164.000 106.000 C 164.000 105.467,164.267 105.200,164.800 105.200 C 165.244 105.200,165.600 104.933,165.600 104.600 C 165.600 104.181,166.022 104.000,167.000 104.000 C 168.133 104.000,168.400 103.848,168.400 103.200 C 168.400 102.552,168.667 102.400,169.800 102.400 C 170.778 102.400,171.200 102.219,171.200 101.800 C 171.200 101.467,171.556 101.200,172.000 101.200 C 172.533 101.200,172.800 100.933,172.800 100.400 C 172.800 99.752,173.067 99.600,174.200 99.600 C 175.178 99.600,175.600 99.419,175.600 99.000 C 175.600 98.670,175.887 98.400,176.237 98.400 C 176.588 98.400,176.969 98.040,177.084 97.600 C 177.241 96.999,177.630 96.800,178.647 96.800 C 179.733 96.800,180.000 96.642,180.000 96.000 C 180.000 95.352,180.267 95.200,181.400 95.200 C 182.378 95.200,182.800 95.019,182.800 94.600 C 182.800 94.181,183.222 94.000,184.200 94.000 C 185.333 94.000,185.600 93.848,185.600 93.200 C 185.600 92.476,185.867 92.400,188.400 92.400 C 190.622 92.400,191.200 92.276,191.200 91.800 C 191.200 91.320,191.800 91.200,194.200 91.200 C 196.933 91.200,197.200 91.129,197.200 90.400 C 197.200 89.637,197.467 89.600,203.000 89.600 C 208.533 89.600,208.800 89.637,208.800 90.400 C 208.800 91.093,209.067 91.200,210.800 91.200 C 212.311 91.200,212.800 91.347,212.800 91.800 C 212.800 92.233,213.244 92.400,214.400 92.400 C 215.733 92.400,216.000 92.533,216.000 93.200 C 216.000 93.644,216.267 94.000,216.600 94.000 C 216.930 94.000,217.200 94.270,217.200 94.600 C 217.200 95.019,217.622 95.200,218.600 95.200 C 219.733 95.200,220.000 95.352,220.000 96.000 C 220.000 96.533,220.267 96.800,220.800 96.800 C 221.333 96.800,221.600 97.067,221.600 97.600 C 221.600 98.248,221.867 98.400,223.000 98.400 C 223.978 98.400,224.400 98.581,224.400 99.000 C 224.400 99.415,224.817 99.600,225.753 99.600 C 226.770 99.600,227.159 99.799,227.316 100.400 C 227.431 100.840,227.812 101.200,228.163 101.200 C 228.513 101.200,228.800 101.470,228.800 101.800 C 228.800 102.219,229.222 102.400,230.200 102.400 C 231.333 102.400,231.600 102.552,231.600 103.200 C 231.600 103.848,231.867 104.000,233.000 104.000 C 233.978 104.000,234.400 104.181,234.400 104.600 C 234.400 104.933,234.756 105.200,235.200 105.200 C 235.733 105.200,236.000 105.467,236.000 106.000 C 236.000 106.648,236.267 106.800,237.400 106.800 C 238.533 106.800,238.800 106.952,238.800 107.600 C 238.800 108.133,239.067 108.400,239.600 108.400 C 240.044 108.400,240.400 108.667,240.400 109.000 C 240.400 109.419,240.822 109.600,241.800 109.600 C 242.933 109.600,243.200 109.752,243.200 110.400 C 243.200 111.048,243.467 111.200,244.600 111.200 C 245.578 111.200,246.000 111.381,246.000 111.800 C 246.000 112.133,246.356 112.400,246.800 112.400 C 247.333 112.400,247.600 112.667,247.600 113.200 C 247.600 113.848,247.867 114.000,249.000 114.000 C 250.133 114.000,250.400 114.152,250.400 114.800 C 250.400 115.448,250.667 115.600,251.800 115.600 C 252.778 115.600,253.200 115.781,253.200 116.200 C 253.200 116.530,253.449 116.800,253.753 116.800 C 254.058 116.800,254.401 117.160,254.516 117.600 C 254.676 118.213,255.062 118.400,256.163 118.400 C 257.174 118.400,257.600 118.578,257.600 119.000 C 257.600 119.419,258.022 119.600,259.000 119.600 C 260.133 119.600,260.400 119.752,260.400 120.400 C 260.400 121.048,260.667 121.200,261.800 121.200 C 262.778 121.200,263.200 121.381,263.200 121.800 C 263.200 122.133,263.556 122.400,264.000 122.400 C 264.533 122.400,264.800 122.667,264.800 123.200 C 264.800 123.848,265.067 124.000,266.200 124.000 C 267.333 124.000,267.600 124.152,267.600 124.800 C 267.600 125.448,267.867 125.600,269.000 125.600 C 269.978 125.600,270.400 125.781,270.400 126.200 C 270.400 126.530,270.670 126.800,271.000 126.800 C 271.333 126.800,271.600 127.156,271.600 127.600 C 271.600 128.267,271.867 128.400,273.200 128.400 C 274.356 128.400,274.800 128.567,274.800 129.000 C 274.800 129.330,275.070 129.600,275.400 129.600 C 275.733 129.600,276.000 129.956,276.000 130.400 C 276.000 131.042,276.267 131.200,277.353 131.200 C 278.370 131.200,278.759 131.399,278.916 132.000 C 279.031 132.440,279.412 132.800,279.763 132.800 C 280.113 132.800,280.400 133.070,280.400 133.400 C 280.400 133.819,280.822 134.000,281.800 134.000 C 282.933 134.000,283.200 134.152,283.200 134.800 C 283.200 135.448,283.467 135.600,284.600 135.600 C 285.578 135.600,286.000 135.781,286.000 136.200 C 286.000 136.533,286.356 136.800,286.800 136.800 C 287.333 136.800,287.600 137.067,287.600 137.600 C 287.600 138.248,287.867 138.400,289.000 138.400 C 289.978 138.400,290.400 138.581,290.400 139.000 C 290.400 139.419,290.822 139.600,291.800 139.600 C 292.933 139.600,293.200 139.752,293.200 140.400 C 293.200 141.042,293.467 141.200,294.553 141.200 C 295.570 141.200,295.959 141.399,296.116 142.000 C 296.231 142.440,296.612 142.800,296.963 142.800 C 297.313 142.800,297.600 143.070,297.600 143.400 C 297.600 143.819,298.022 144.000,299.000 144.000 C 300.133 144.000,300.400 144.152,300.400 144.800 C 300.400 145.448,300.667 145.600,301.800 145.600 C 302.778 145.600,303.200 145.781,303.200 146.200 C 303.200 146.533,303.556 146.800,304.000 146.800 C 304.533 146.800,304.800 147.067,304.800 147.600 C 304.800 148.248,305.067 148.400,306.200 148.400 C 307.333 148.400,307.600 148.552,307.600 149.200 C 307.600 149.848,307.867 150.000,309.000 150.000 C 309.978 150.000,310.400 150.181,310.400 150.600 C 310.400 150.933,310.756 151.200,311.200 151.200 C 311.733 151.200,312.000 151.467,312.000 152.000 C 312.000 152.648,312.267 152.800,313.400 152.800 C 314.378 152.800,314.800 152.981,314.800 153.400 C 314.800 153.733,315.156 154.000,315.600 154.000 C 316.133 154.000,316.400 154.267,316.400 154.800 C 316.400 155.448,316.667 155.600,317.800 155.600 C 318.778 155.600,319.200 155.781,319.200 156.200 C 319.200 156.619,319.622 156.800,320.600 156.800 C 321.733 156.800,322.000 156.952,322.000 157.600 C 322.000 158.040,322.249 158.400,322.553 158.400 C 322.858 158.400,323.201 158.760,323.316 159.200 C 323.476 159.813,323.862 160.000,324.963 160.000 C 325.974 160.000,326.400 160.178,326.400 160.600 C 326.400 161.019,326.822 161.200,327.800 161.200 C 328.933 161.200,329.200 161.352,329.200 162.000 C 329.200 162.444,329.467 162.800,329.800 162.800 C 330.130 162.800,330.400 163.070,330.400 163.400 C 330.400 163.861,330.911 164.000,332.600 164.000 C 334.533 164.000,334.800 164.097,334.800 164.800 C 334.800 165.442,335.067 165.600,336.153 165.600 C 337.170 165.600,337.559 165.799,337.716 166.400 C 337.831 166.840,338.212 167.200,338.563 167.200 C 338.913 167.200,339.200 167.470,339.200 167.800 C 339.200 168.219,339.622 168.400,340.600 168.400 C 341.733 168.400,342.000 168.552,342.000 169.200 C 342.000 169.733,342.267 170.000,342.800 170.000 C 343.244 170.000,343.600 170.267,343.600 170.600 C 343.600 170.930,343.870 171.200,344.200 171.200 C 344.533 171.200,344.800 171.556,344.800 172.000 C 344.800 172.533,345.067 172.800,345.600 172.800 C 346.248 172.800,346.400 173.067,346.400 174.200 C 346.400 175.125,346.588 175.600,346.953 175.600 C 347.258 175.600,347.601 175.960,347.716 176.400 C 347.831 176.840,348.212 177.200,348.563 177.200 C 349.024 177.200,349.200 177.586,349.200 178.600 C 349.200 179.733,349.352 180.000,350.000 180.000 C 350.703 180.000,350.800 180.267,350.800 182.200 C 350.800 183.889,350.939 184.400,351.400 184.400 C 351.853 184.400,352.000 184.889,352.000 186.400 C 352.000 188.133,352.107 188.400,352.800 188.400 C 353.529 188.400,353.600 188.667,353.600 191.400 C 353.600 193.800,353.720 194.400,354.200 194.400 C 354.731 194.400,354.800 203.267,354.800 271.800 C 354.800 340.333,354.731 349.200,354.200 349.200 C 353.711 349.200,353.600 349.867,353.600 352.800 C 353.600 356.133,353.541 356.400,352.800 356.400 C 352.097 356.400,352.000 356.667,352.000 358.600 C 352.000 360.289,351.861 360.800,351.400 360.800 C 350.947 360.800,350.800 361.289,350.800 362.800 C 350.800 364.533,350.693 364.800,350.000 364.800 C 349.333 364.800,349.200 365.067,349.200 366.400 C 349.200 367.733,349.067 368.000,348.400 368.000 C 347.956 368.000,347.600 368.267,347.600 368.600 C 347.600 368.930,347.330 369.200,347.000 369.200 C 346.581 369.200,346.400 369.622,346.400 370.600 C 346.400 371.733,346.248 372.000,345.600 372.000 C 345.067 372.000,344.800 372.267,344.800 372.800 C 344.800 373.244,344.533 373.600,344.200 373.600 C 343.870 373.600,343.600 373.870,343.600 374.200 C 343.600 374.533,343.244 374.800,342.800 374.800 C 342.267 374.800,342.000 375.067,342.000 375.600 C 342.000 376.248,341.733 376.400,340.600 376.400 C 339.467 376.400,339.200 376.552,339.200 377.200 C 339.200 377.848,338.933 378.000,337.800 378.000 C 336.822 378.000,336.400 378.181,336.400 378.600 C 336.400 379.019,335.978 379.200,335.000 379.200 C 333.867 379.200,333.600 379.352,333.600 380.000 C 333.600 380.667,333.333 380.800,332.000 380.800 C 330.844 380.800,330.400 380.967,330.400 381.400 C 330.400 381.730,330.130 382.000,329.800 382.000 C 329.467 382.000,329.200 382.356,329.200 382.800 C 329.200 383.448,328.933 383.600,327.800 383.600 C 326.667 383.600,326.400 383.752,326.400 384.400 C 326.400 384.933,326.133 385.200,325.600 385.200 C 325.156 385.200,324.800 385.467,324.800 385.800 C 324.800 386.219,324.378 386.400,323.400 386.400 C 322.267 386.400,322.000 386.552,322.000 387.200 C 322.000 387.848,321.733 388.000,320.600 388.000 C 319.622 388.000,319.200 388.181,319.200 388.600 C 319.200 388.933,318.844 389.200,318.400 389.200 C 317.867 389.200,317.600 389.467,317.600 390.000 C 317.600 390.648,317.333 390.800,316.200 390.800 C 315.222 390.800,314.800 390.981,314.800 391.400 C 314.800 391.819,314.378 392.000,313.400 392.000 C 312.267 392.000,312.000 392.152,312.000 392.800 C 312.000 393.448,311.733 393.600,310.600 393.600 C 309.467 393.600,309.200 393.752,309.200 394.400 C 309.200 394.933,308.933 395.200,308.400 395.200 C 307.956 395.200,307.600 395.467,307.600 395.800 C 307.600 396.219,307.178 396.400,306.200 396.400 C 305.067 396.400,304.800 396.552,304.800 397.200 C 304.800 397.848,304.533 398.000,303.400 398.000 C 302.422 398.000,302.000 398.181,302.000 398.600 C 302.000 399.019,301.578 399.200,300.600 399.200 C 299.467 399.200,299.200 399.352,299.200 400.000 C 299.200 400.667,298.933 400.800,297.600 400.800 C 296.267 400.800,296.000 400.933,296.000 401.600 C 296.000 402.044,295.733 402.400,295.400 402.400 C 295.070 402.400,294.800 402.670,294.800 403.000 C 294.800 403.419,294.378 403.600,293.400 403.600 C 292.267 403.600,292.000 403.752,292.000 404.400 C 292.000 405.067,291.733 405.200,290.400 405.200 C 289.244 405.200,288.800 405.367,288.800 405.800 C 288.800 406.204,288.396 406.400,287.563 406.400 C 286.662 406.400,286.268 406.617,286.116 407.200 C 286.001 407.640,285.658 408.000,285.353 408.000 C 285.049 408.000,284.800 408.270,284.800 408.600 C 284.800 409.019,284.378 409.200,283.400 409.200 C 282.267 409.200,282.000 409.352,282.000 410.000 C 282.000 410.533,281.733 410.800,281.200 410.800 C 280.667 410.800,280.400 411.067,280.400 411.600 C 280.400 412.248,280.133 412.400,279.000 412.400 C 278.022 412.400,277.600 412.581,277.600 413.000 C 277.600 413.419,277.178 413.600,276.200 413.600 C 275.067 413.600,274.800 413.752,274.800 414.400 C 274.800 415.067,274.533 415.200,273.200 415.200 C 272.044 415.200,271.600 415.367,271.600 415.800 C 271.600 416.130,271.330 416.400,271.000 416.400 C 270.667 416.400,270.400 416.756,270.400 417.200 C 270.400 417.848,270.133 418.000,269.000 418.000 C 267.867 418.000,267.600 418.152,267.600 418.800 C 267.600 419.448,267.333 419.600,266.200 419.600 C 265.222 419.600,264.800 419.781,264.800 420.200 C 264.800 420.633,264.356 420.800,263.200 420.800 C 261.867 420.800,261.600 420.933,261.600 421.600 C 261.600 422.044,261.333 422.400,261.000 422.400 C 260.670 422.400,260.400 422.670,260.400 423.000 C 260.400 423.419,259.978 423.600,259.000 423.600 C 257.867 423.600,257.600 423.752,257.600 424.400 C 257.600 425.067,257.333 425.200,256.000 425.200 C 254.844 425.200,254.400 425.367,254.400 425.800 C 254.400 426.219,253.978 426.400,253.000 426.400 C 251.867 426.400,251.600 426.552,251.600 427.200 C 251.600 427.848,251.333 428.000,250.200 428.000 C 249.067 428.000,248.800 428.152,248.800 428.800 C 248.800 429.244,248.533 429.600,248.200 429.600 C 247.870 429.600,247.600 429.870,247.600 430.200 C 247.600 430.633,247.156 430.800,246.000 430.800 C 244.667 430.800,244.400 430.933,244.400 431.600 C 244.400 432.044,244.133 432.400,243.800 432.400 C 243.470 432.400,243.200 432.670,243.200 433.000 C 243.200 433.419,242.778 433.600,241.800 433.600 C 240.667 433.600,240.400 433.752,240.400 434.400 C 240.400 435.067,240.133 435.200,238.800 435.200 C 237.467 435.200,237.200 435.333,237.200 436.000 C 237.200 436.444,236.933 436.800,236.600 436.800 C 236.270 436.800,236.000 437.070,236.000 437.400 C 236.000 437.819,235.578 438.000,234.600 438.000 C 233.467 438.000,233.200 438.152,233.200 438.800 C 233.200 439.467,232.933 439.600,231.600 439.600 C 230.444 439.600,230.000 439.767,230.000 440.200 C 230.000 440.604,229.596 440.800,228.763 440.800 C 227.862 440.800,227.468 441.017,227.316 441.600 C 227.159 442.201,226.770 442.400,225.753 442.400 C 224.817 442.400,224.400 442.585,224.400 443.000 C 224.400 443.330,224.130 443.600,223.800 443.600 C 223.467 443.600,223.200 443.956,223.200 444.400 C 223.200 445.067,222.933 445.200,221.600 445.200 C 220.267 445.200,220.000 445.333,220.000 446.000 C 220.000 446.648,219.733 446.800,218.600 446.800 C 217.622 446.800,217.200 446.981,217.200 447.400 C 217.200 447.730,216.930 448.000,216.600 448.000 C 216.267 448.000,216.000 448.356,216.000 448.800 C 216.000 449.467,215.733 449.600,214.400 449.600 C 213.244 449.600,212.800 449.767,212.800 450.200 C 212.800 450.653,212.311 450.800,210.800 450.800 C 209.067 450.800,208.800 450.907,208.800 451.600 C 208.800 452.373,208.533 452.400,200.800 452.400 C 193.067 452.400,192.800 452.373,192.800 451.600 C 192.800 450.897,192.533 450.800,190.600 450.800 C 188.911 450.800,188.400 450.661,188.400 450.200 C 188.400 449.781,187.978 449.600,187.000 449.600 C 185.867 449.600,185.600 449.448,185.600 448.800 C 185.600 448.356,185.333 448.000,185.000 448.000 C 184.670 448.000,184.400 447.730,184.400 447.400 C 184.400 446.967,183.956 446.800,182.800 446.800 C 181.467 446.800,181.200 446.667,181.200 446.000 C 181.200 445.352,180.933 445.200,179.800 445.200 C 178.667 445.200,178.400 445.048,178.400 444.400 C 178.400 443.956,178.133 443.600,177.800 443.600 C 177.470 443.600,177.200 443.330,177.200 443.000 C 177.200 442.567,176.756 442.400,175.600 442.400 C 174.267 442.400,174.000 442.267,174.000 441.600 C 174.000 440.952,173.733 440.800,172.600 440.800 C 171.622 440.800,171.200 440.619,171.200 440.200 C 171.200 439.870,170.930 439.600,170.600 439.600 C 170.267 439.600,170.000 439.244,170.000 438.800 C 170.000 438.152,169.733 438.000,168.600 438.000 C 167.622 438.000,167.200 437.819,167.200 437.400 C 167.200 436.967,166.756 436.800,165.600 436.800 C 164.267 436.800,164.000 436.667,164.000 436.000 C 164.000 435.556,163.733 435.200,163.400 435.200 C 163.067 435.200,162.800 434.844,162.800 434.400 C 162.800 433.752,162.533 433.600,161.400 433.600 C 160.422 433.600,160.000 433.419,160.000 433.000 C 160.000 432.667,159.644 432.400,159.200 432.400 C 158.667 432.400,158.400 432.133,158.400 431.600 C 158.400 430.952,158.133 430.800,157.000 430.800 C 156.022 430.800,155.600 430.619,155.600 430.200 C 155.600 429.867,155.244 429.600,154.800 429.600 C 154.267 429.600,154.000 429.333,154.000 428.800 C 154.000 428.152,153.733 428.000,152.600 428.000 C 151.467 428.000,151.200 427.848,151.200 427.200 C 151.200 426.552,150.933 426.400,149.800 426.400 C 148.822 426.400,148.400 426.219,148.400 425.800 C 148.400 425.467,148.044 425.200,147.600 425.200 C 147.067 425.200,146.800 424.933,146.800 424.400 C 146.800 423.752,146.533 423.600,145.400 423.600 C 144.422 423.600,144.000 423.419,144.000 423.000 C 144.000 422.581,143.578 422.400,142.600 422.400 C 141.467 422.400,141.200 422.248,141.200 421.600 C 141.200 421.067,140.933 420.800,140.400 420.800 C 139.956 420.800,139.600 420.533,139.600 420.200 C 139.600 419.781,139.178 419.600,138.200 419.600 C 137.067 419.600,136.800 419.448,136.800 418.800 C 136.800 418.152,136.533 418.000,135.400 418.000 C 134.267 418.000,134.000 417.848,134.000 417.200 C 134.000 416.552,133.733 416.400,132.600 416.400 C 131.622 416.400,131.200 416.219,131.200 415.800 C 131.200 415.467,130.844 415.200,130.400 415.200 C 129.867 415.200,129.600 414.933,129.600 414.400 C 129.600 413.752,129.333 413.600,128.200 413.600 C 127.222 413.600,126.800 413.419,126.800 413.000 C 126.800 412.670,126.530 412.400,126.200 412.400 C 125.867 412.400,125.600 412.044,125.600 411.600 C 125.600 410.933,125.333 410.800,124.000 410.800 C 122.667 410.800,122.400 410.667,122.400 410.000 C 122.400 409.352,122.133 409.200,121.000 409.200 C 120.022 409.200,119.600 409.019,119.600 408.600 C 119.600 408.270,119.330 408.000,119.000 408.000 C 118.670 408.000,118.400 407.713,118.400 407.363 C 118.400 407.012,118.040 406.631,117.600 406.516 C 117.160 406.401,116.800 406.058,116.800 405.753 C 116.800 405.388,116.325 405.200,115.400 405.200 C 114.267 405.200,114.000 405.048,114.000 404.400 C 114.000 403.752,113.733 403.600,112.600 403.600 C 111.622 403.600,111.200 403.419,111.200 403.000 C 111.200 402.581,110.778 402.400,109.800 402.400 C 108.667 402.400,108.400 402.248,108.400 401.600 C 108.400 401.067,108.133 400.800,107.600 400.800 C 107.067 400.800,106.800 400.533,106.800 400.000 C 106.800 399.352,106.533 399.200,105.400 399.200 C 104.422 399.200,104.000 399.019,104.000 398.600 C 104.000 398.181,103.578 398.000,102.600 398.000 C 101.467 398.000,101.200 397.848,101.200 397.200 C 101.200 396.667,100.933 396.400,100.400 396.400 C 99.956 396.400,99.600 396.133,99.600 395.800 C 99.600 395.381,99.178 395.200,98.200 395.200 C 97.067 395.200,96.800 395.048,96.800 394.400 C 96.800 393.752,96.533 393.600,95.400 393.600 C 94.267 393.600,94.000 393.448,94.000 392.800 C 94.000 392.267,93.733 392.000,93.200 392.000 C 92.756 392.000,92.400 391.733,92.400 391.400 C 92.400 390.981,91.978 390.800,91.000 390.800 C 89.867 390.800,89.600 390.648,89.600 390.000 C 89.600 389.352,89.333 389.200,88.200 389.200 C 87.222 389.200,86.800 389.019,86.800 388.600 C 86.800 388.267,86.444 388.000,86.000 388.000 C 85.467 388.000,85.200 387.733,85.200 387.200 C 85.200 386.552,84.933 386.400,83.800 386.400 C 82.822 386.400,82.400 386.219,82.400 385.800 C 82.400 385.470,82.130 385.200,81.800 385.200 C 81.467 385.200,81.200 384.844,81.200 384.400 C 81.200 383.733,80.933 383.600,79.600 383.600 C 78.267 383.600,78.000 383.467,78.000 382.800 C 78.000 382.356,77.733 382.000,77.400 382.000 C 77.070 382.000,76.800 381.730,76.800 381.400 C 76.800 380.981,76.378 380.800,75.400 380.800 C 74.267 380.800,74.000 380.648,74.000 380.000 C 74.000 379.333,73.733 379.200,72.400 379.200 C 71.244 379.200,70.800 379.033,70.800 378.600 C 70.800 378.270,70.530 378.000,70.200 378.000 C 69.867 378.000,69.600 377.644,69.600 377.200 C 69.600 376.558,69.333 376.400,68.247 376.400 C 67.230 376.400,66.841 376.201,66.684 375.600 C 66.524 374.987,66.138 374.800,65.037 374.800 C 64.026 374.800,63.600 374.622,63.600 374.200 C 63.600 373.781,63.178 373.600,62.200 373.600 C 61.067 373.600,60.800 373.448,60.800 372.800 C 60.800 372.356,60.533 372.000,60.200 372.000 C 59.870 372.000,59.600 371.730,59.600 371.400 C 59.600 370.981,59.178 370.800,58.200 370.800 C 57.067 370.800,56.800 370.648,56.800 370.000 C 56.800 369.467,56.533 369.200,56.000 369.200 C 55.556 369.200,55.200 368.933,55.200 368.600 C 55.200 368.267,54.844 368.000,54.400 368.000 C 53.867 368.000,53.600 367.733,53.600 367.200 C 53.600 366.756,53.333 366.400,53.000 366.400 C 52.667 366.400,52.400 366.044,52.400 365.600 C 52.400 365.067,52.133 364.800,51.600 364.800 C 50.952 364.800,50.800 364.533,50.800 363.400 C 50.800 362.422,50.619 362.000,50.200 362.000 C 49.781 362.000,49.600 361.578,49.600 360.600 C 49.600 359.467,49.448 359.200,48.800 359.200 C 48.152 359.200,48.000 358.933,48.000 357.800 C 48.000 356.667,47.848 356.400,47.200 356.400 C 46.476 356.400,46.400 356.133,46.400 353.600 C 46.400 351.378,46.276 350.800,45.800 350.800 C 45.320 350.800,45.200 350.200,45.200 347.800 C 45.200 345.067,45.129 344.800,44.400 344.800 C 43.602 344.800,43.600 344.533,43.600 233.000 L 43.600 121.200 41.600 121.200 C 39.867 121.200,39.600 121.307,39.600 122.000 C 39.600 122.648,39.333 122.800,38.200 122.800 C 37.222 122.800,36.800 122.981,36.800 123.400 C 36.800 123.733,36.444 124.000,36.000 124.000 C 35.467 124.000,35.200 124.267,35.200 124.800 C 35.200 125.448,34.933 125.600,33.800 125.600 C 32.822 125.600,32.400 125.781,32.400 126.200 C 32.400 126.530,32.113 126.800,31.763 126.800 C 31.412 126.800,31.031 127.160,30.916 127.600 C 30.801 128.040,30.458 128.400,30.153 128.400 C 29.849 128.400,29.600 128.760,29.600 129.200 C 29.600 129.733,29.333 130.000,28.800 130.000 C 28.356 130.000,28.000 130.267,28.000 130.600 C 28.000 130.930,27.730 131.200,27.400 131.200 C 27.067 131.200,26.800 131.556,26.800 132.000 C 26.800 132.533,26.533 132.800,26.000 132.800 C 25.556 132.800,25.200 133.067,25.200 133.400 C 25.200 133.730,24.913 134.000,24.563 134.000 C 24.212 134.000,23.831 134.360,23.716 134.800 C 23.601 135.240,23.258 135.600,22.953 135.600 C 22.649 135.600,22.400 135.870,22.400 136.200 C 22.400 136.533,22.044 136.800,21.600 136.800 C 21.067 136.800,20.800 137.067,20.800 137.600 C 20.800 138.044,20.533 138.400,20.200 138.400 C 19.867 138.400,19.600 138.756,19.600 139.200 C 19.600 139.733,19.333 140.000,18.800 140.000 C 18.356 140.000,18.000 140.267,18.000 140.600 C 18.000 140.933,17.644 141.200,17.200 141.200 C 16.667 141.200,16.400 141.467,16.400 142.000 C 16.400 142.444,16.133 142.800,15.800 142.800 C 15.381 142.800,15.200 143.222,15.200 144.200 C 15.200 145.333,15.048 145.600,14.400 145.600 C 13.867 145.600,13.600 145.867,13.600 146.400 C 13.600 146.844,13.333 147.200,13.000 147.200 C 12.581 147.200,12.400 147.622,12.400 148.600 C 12.400 149.733,12.248 150.000,11.600 150.000 C 11.156 150.000,10.800 150.267,10.800 150.600 C 10.800 150.930,10.530 151.200,10.200 151.200 C 9.767 151.200,9.600 151.644,9.600 152.800 C 9.600 154.133,9.467 154.400,8.800 154.400 C 8.152 154.400,8.000 154.667,8.000 155.800 C 8.000 156.933,7.848 157.200,7.200 157.200 C 6.552 157.200,6.400 157.467,6.400 158.600 C 6.400 159.578,6.219 160.000,5.800 160.000 C 5.381 160.000,5.200 160.422,5.200 161.400 C 5.200 162.533,5.048 162.800,4.400 162.800 C 3.697 162.800,3.600 163.067,3.600 165.000 C 3.600 166.689,3.461 167.200,3.000 167.200 C 2.539 167.200,2.400 167.711,2.400 169.400 C 2.400 171.333,2.303 171.600,1.600 171.600 C 0.952 171.600,0.800 171.867,0.800 173.000 C 0.800 173.770,0.620 174.400,0.400 174.400 C 0.134 174.400,0.000 206.667,0.000 270.400 C 0.000 334.133,0.134 366.400,0.400 366.400 C 0.620 366.400,0.800 367.030,0.800 367.800 C 0.800 368.933,0.952 369.200,1.600 369.200 C 2.303 369.200,2.400 369.467,2.400 371.400 C 2.400 373.089,2.539 373.600,3.000 373.600 C 3.453 373.600,3.600 374.089,3.600 375.600 C 3.600 377.333,3.707 377.600,4.400 377.600 C 5.067 377.600,5.200 377.867,5.200 379.200 C 5.200 380.356,5.367 380.800,5.800 380.800 C 6.253 380.800,6.400 381.289,6.400 382.800 C 6.400 384.533,6.507 384.800,7.200 384.800 C 7.848 384.800,8.000 385.067,8.000 386.200 C 8.000 387.333,8.152 387.600,8.800 387.600 C 9.467 387.600,9.600 387.867,9.600 389.200 C 9.600 390.356,9.767 390.800,10.200 390.800 C 10.619 390.800,10.800 391.222,10.800 392.200 C 10.800 393.333,10.952 393.600,11.600 393.600 C 12.044 393.600,12.400 393.867,12.400 394.200 C 12.400 394.530,12.670 394.800,13.000 394.800 C 13.433 394.800,13.600 395.244,13.600 396.400 C 13.600 397.733,13.733 398.000,14.400 398.000 C 14.844 398.000,15.200 398.267,15.200 398.600 C 15.200 398.930,15.470 399.200,15.800 399.200 C 16.133 399.200,16.400 399.556,16.400 400.000 C 16.400 400.533,16.667 400.800,17.200 400.800 C 17.644 400.800,18.000 401.067,18.000 401.400 C 18.000 401.733,18.356 402.000,18.800 402.000 C 19.333 402.000,19.600 402.267,19.600 402.800 C 19.600 403.244,19.867 403.600,20.200 403.600 C 20.530 403.600,20.800 403.870,20.800 404.200 C 20.800 404.533,21.156 404.800,21.600 404.800 C 22.133 404.800,22.400 405.067,22.400 405.600 C 22.400 406.044,22.667 406.400,23.000 406.400 C 23.330 406.400,23.600 406.687,23.600 407.037 C 23.600 407.388,23.960 407.769,24.400 407.884 C 24.840 407.999,25.200 408.342,25.200 408.647 C 25.200 408.951,25.560 409.200,26.000 409.200 C 26.533 409.200,26.800 409.467,26.800 410.000 C 26.800 410.444,27.067 410.800,27.400 410.800 C 27.730 410.800,28.000 411.070,28.000 411.400 C 28.000 411.819,28.422 412.000,29.400 412.000 C 30.533 412.000,30.800 412.152,30.800 412.800 C 30.800 413.442,31.067 413.600,32.153 413.600 C 33.170 413.600,33.559 413.799,33.716 414.400 C 33.876 415.013,34.262 415.200,35.363 415.200 C 36.374 415.200,36.800 415.378,36.800 415.800 C 36.800 416.130,37.070 416.400,37.400 416.400 C 37.733 416.400,38.000 416.756,38.000 417.200 C 38.000 417.848,38.267 418.000,39.400 418.000 C 40.378 418.000,40.800 418.181,40.800 418.600 C 40.800 419.033,41.244 419.200,42.400 419.200 C 43.733 419.200,44.000 419.333,44.000 420.000 C 44.000 420.444,44.267 420.800,44.600 420.800 C 44.930 420.800,45.200 421.070,45.200 421.400 C 45.200 421.819,45.622 422.000,46.600 422.000 C 47.733 422.000,48.000 422.152,48.000 422.800 C 48.000 423.442,48.267 423.600,49.353 423.600 C 50.370 423.600,50.759 423.799,50.916 424.400 C 51.076 425.013,51.462 425.200,52.563 425.200 C 53.574 425.200,54.000 425.378,54.000 425.800 C 54.000 426.130,54.270 426.400,54.600 426.400 C 54.933 426.400,55.200 426.756,55.200 427.200 C 55.200 427.733,55.467 428.000,56.000 428.000 C 56.444 428.000,56.800 428.267,56.800 428.600 C 56.800 429.019,57.222 429.200,58.200 429.200 C 59.333 429.200,59.600 429.352,59.600 430.000 C 59.600 430.648,59.867 430.800,61.000 430.800 C 62.133 430.800,62.400 430.952,62.400 431.600 C 62.400 432.133,62.667 432.400,63.200 432.400 C 63.644 432.400,64.000 432.667,64.000 433.000 C 64.000 433.419,64.422 433.600,65.400 433.600 C 66.533 433.600,66.800 433.752,66.800 434.400 C 66.800 435.048,67.067 435.200,68.200 435.200 C 69.178 435.200,69.600 435.381,69.600 435.800 C 69.600 436.219,70.022 436.400,71.000 436.400 C 72.133 436.400,72.400 436.552,72.400 437.200 C 72.400 437.733,72.667 438.000,73.200 438.000 C 73.644 438.000,74.000 438.267,74.000 438.600 C 74.000 439.019,74.422 439.200,75.400 439.200 C 76.533 439.200,76.800 439.352,76.800 440.000 C 76.800 440.648,77.067 440.800,78.200 440.800 C 79.333 440.800,79.600 440.952,79.600 441.600 C 79.600 442.133,79.867 442.400,80.400 442.400 C 80.844 442.400,81.200 442.667,81.200 443.000 C 81.200 443.419,81.622 443.600,82.600 443.600 C 83.733 443.600,84.000 443.752,84.000 444.400 C 84.000 445.048,84.267 445.200,85.400 445.200 C 86.378 445.200,86.800 445.381,86.800 445.800 C 86.800 446.133,87.156 446.400,87.600 446.400 C 88.133 446.400,88.400 446.667,88.400 447.200 C 88.400 447.848,88.667 448.000,89.800 448.000 C 90.933 448.000,91.200 448.152,91.200 448.800 C 91.200 449.448,91.467 449.600,92.600 449.600 C 93.578 449.600,94.000 449.781,94.000 450.200 C 94.000 450.533,94.356 450.800,94.800 450.800 C 95.333 450.800,95.600 451.067,95.600 451.600 C 95.600 452.248,95.867 452.400,97.000 452.400 C 97.978 452.400,98.400 452.581,98.400 453.000 C 98.400 453.330,98.670 453.600,99.000 453.600 C 99.333 453.600,99.600 453.956,99.600 454.400 C 99.600 455.042,99.867 455.200,100.953 455.200 C 101.970 455.200,102.359 455.399,102.516 456.000 C 102.676 456.613,103.062 456.800,104.163 456.800 C 105.174 456.800,105.600 456.978,105.600 457.400 C 105.600 457.730,105.870 458.000,106.200 458.000 C 106.533 458.000,106.800 458.356,106.800 458.800 C 106.800 459.448,107.067 459.600,108.200 459.600 C 109.178 459.600,109.600 459.781,109.600 460.200 C 109.600 460.633,110.044 460.800,111.200 460.800 C 112.533 460.800,112.800 460.933,112.800 461.600 C 112.800 462.248,113.067 462.400,114.200 462.400 C 115.178 462.400,115.600 462.581,115.600 463.000 C 115.600 463.330,115.870 463.600,116.200 463.600 C 116.533 463.600,116.800 463.956,116.800 464.400 C 116.800 465.067,117.067 465.200,118.400 465.200 C 119.733 465.200,120.000 465.333,120.000 466.000 C 120.000 466.648,120.267 466.800,121.400 466.800 C 122.378 466.800,122.800 466.981,122.800 467.400 C 122.800 467.730,123.070 468.000,123.400 468.000 C 123.733 468.000,124.000 468.356,124.000 468.800 C 124.000 469.448,124.267 469.600,125.400 469.600 C 126.378 469.600,126.800 469.781,126.800 470.200 C 126.800 470.633,127.244 470.800,128.400 470.800 C 129.733 470.800,130.000 470.933,130.000 471.600 C 130.000 472.044,130.267 472.400,130.600 472.400 C 130.933 472.400,131.200 472.756,131.200 473.200 C 131.200 473.848,131.467 474.000,132.600 474.000 C 133.578 474.000,134.000 474.181,134.000 474.600 C 134.000 474.933,134.356 475.200,134.800 475.200 C 135.333 475.200,135.600 475.467,135.600 476.000 C 135.600 476.648,135.867 476.800,137.000 476.800 C 137.978 476.800,138.400 476.981,138.400 477.400 C 138.400 477.819,138.822 478.000,139.800 478.000 C 140.933 478.000,141.200 478.152,141.200 478.800 C 141.200 479.333,141.467 479.600,142.000 479.600 C 142.444 479.600,142.800 479.867,142.800 480.200 C 142.800 480.619,143.222 480.800,144.200 480.800 C 145.333 480.800,145.600 480.952,145.600 481.600 C 145.600 482.248,145.867 482.400,147.000 482.400 C 148.133 482.400,148.400 482.552,148.400 483.200 C 148.400 483.848,148.667 484.000,149.800 484.000 C 150.778 484.000,151.200 484.181,151.200 484.600 C 151.200 484.933,151.556 485.200,152.000 485.200 C 152.533 485.200,152.800 485.467,152.800 486.000 C 152.800 486.648,153.067 486.800,154.200 486.800 C 155.178 486.800,155.600 486.981,155.600 487.400 C 155.600 487.819,156.022 488.000,157.000 488.000 C 158.133 488.000,158.400 488.152,158.400 488.800 C 158.400 489.333,158.667 489.600,159.200 489.600 C 159.733 489.600,160.000 489.867,160.000 490.400 C 160.000 491.103,160.267 491.200,162.200 491.200 C 163.889 491.200,164.400 491.339,164.400 491.800 C 164.400 492.219,164.822 492.400,165.800 492.400 C 166.933 492.400,167.200 492.552,167.200 493.200 C 167.200 493.903,167.467 494.000,169.400 494.000 C 171.089 494.000,171.600 494.139,171.600 494.600 C 171.600 495.053,172.089 495.200,173.600 495.200 C 175.333 495.200,175.600 495.307,175.600 496.000 C 175.600 496.648,175.867 496.800,177.000 496.800 C 177.978 496.800,178.400 496.981,178.400 497.400 C 178.400 497.861,178.911 498.000,180.600 498.000 C 182.533 498.000,182.800 498.097,182.800 498.800 C 182.800 499.589,183.067 499.600,202.200 499.600 C 221.333 499.600,221.600 499.589,221.600 498.800 C 221.600 498.152,221.867 498.000,223.000 498.000 C 223.978 498.000,224.400 497.819,224.400 497.400 C 224.400 496.981,224.822 496.800,225.800 496.800 C 226.933 496.800,227.200 496.648,227.200 496.000 C 227.200 495.352,227.467 495.200,228.600 495.200 C 229.578 495.200,230.000 495.019,230.000 494.600 C 230.000 494.267,230.356 494.000,230.800 494.000 C 231.333 494.000,231.600 493.733,231.600 493.200 C 231.600 492.552,231.867 492.400,233.000 492.400 C 233.978 492.400,234.400 492.219,234.400 491.800 C 234.400 491.470,234.687 491.200,235.037 491.200 C 235.388 491.200,235.769 490.840,235.884 490.400 C 235.999 489.960,236.342 489.600,236.647 489.600 C 236.951 489.600,237.200 489.240,237.200 488.800 C 237.200 488.152,237.467 488.000,238.600 488.000 C 239.578 488.000,240.000 487.819,240.000 487.400 C 240.000 486.967,240.444 486.800,241.600 486.800 C 242.933 486.800,243.200 486.667,243.200 486.000 C 243.200 485.556,243.467 485.200,243.800 485.200 C 244.130 485.200,244.400 484.930,244.400 484.600 C 244.400 484.181,244.822 484.000,245.800 484.000 C 246.933 484.000,247.200 483.848,247.200 483.200 C 247.200 482.552,247.467 482.400,248.600 482.400 C 249.733 482.400,250.000 482.248,250.000 481.600 C 250.000 481.067,250.267 480.800,250.800 480.800 C 251.244 480.800,251.600 480.533,251.600 480.200 C 251.600 479.781,252.022 479.600,253.000 479.600 C 254.133 479.600,254.400 479.448,254.400 478.800 C 254.400 478.267,254.667 478.000,255.200 478.000 C 255.644 478.000,256.000 477.733,256.000 477.400 C 256.000 476.981,256.422 476.800,257.400 476.800 C 258.533 476.800,258.800 476.648,258.800 476.000 C 258.800 475.467,259.067 475.200,259.600 475.200 C 260.044 475.200,260.400 474.933,260.400 474.600 C 260.400 474.196,260.804 474.000,261.637 474.000 C 262.538 474.000,262.932 473.783,263.084 473.200 C 263.199 472.760,263.542 472.400,263.847 472.400 C 264.151 472.400,264.400 472.040,264.400 471.600 C 264.400 470.952,264.667 470.800,265.800 470.800 C 266.778 470.800,267.200 470.619,267.200 470.200 C 267.200 469.867,267.556 469.600,268.000 469.600 C 268.533 469.600,268.800 469.333,268.800 468.800 C 268.800 468.152,269.067 468.000,270.200 468.000 C 271.178 468.000,271.600 467.819,271.600 467.400 C 271.600 466.981,272.022 466.800,273.000 466.800 C 274.133 466.800,274.400 466.648,274.400 466.000 C 274.400 465.467,274.667 465.200,275.200 465.200 C 275.733 465.200,276.000 464.933,276.000 464.400 C 276.000 463.752,276.267 463.600,277.400 463.600 C 278.378 463.600,278.800 463.419,278.800 463.000 C 278.800 462.667,279.156 462.400,279.600 462.400 C 280.133 462.400,280.400 462.133,280.400 461.600 C 280.400 460.952,280.667 460.800,281.800 460.800 C 282.778 460.800,283.200 460.619,283.200 460.200 C 283.200 459.781,283.622 459.600,284.600 459.600 C 285.733 459.600,286.000 459.448,286.000 458.800 C 286.000 458.267,286.267 458.000,286.800 458.000 C 287.244 458.000,287.600 457.733,287.600 457.400 C 287.600 456.981,288.022 456.800,289.000 456.800 C 290.133 456.800,290.400 456.648,290.400 456.000 C 290.400 455.352,290.667 455.200,291.800 455.200 C 292.933 455.200,293.200 455.048,293.200 454.400 C 293.200 453.867,293.467 453.600,294.000 453.600 C 294.444 453.600,294.800 453.333,294.800 453.000 C 294.800 452.581,295.222 452.400,296.200 452.400 C 297.333 452.400,297.600 452.248,297.600 451.600 C 297.600 451.156,297.867 450.800,298.200 450.800 C 298.530 450.800,298.800 450.530,298.800 450.200 C 298.800 449.867,299.156 449.600,299.600 449.600 C 300.133 449.600,300.400 449.333,300.400 448.800 C 300.400 448.152,300.667 448.000,301.800 448.000 C 302.933 448.000,303.200 447.848,303.200 447.200 C 303.200 446.552,303.467 446.400,304.600 446.400 C 305.578 446.400,306.000 446.219,306.000 445.800 C 306.000 445.467,306.356 445.200,306.800 445.200 C 307.333 445.200,307.600 444.933,307.600 444.400 C 307.600 443.752,307.867 443.600,309.000 443.600 C 309.925 443.600,310.400 443.412,310.400 443.047 C 310.400 442.742,310.760 442.399,311.200 442.284 C 311.640 442.169,312.000 441.788,312.000 441.437 C 312.000 440.976,312.386 440.800,313.400 440.800 C 314.533 440.800,314.800 440.648,314.800 440.000 C 314.800 439.352,315.067 439.200,316.200 439.200 C 317.178 439.200,317.600 439.019,317.600 438.600 C 317.600 438.270,317.870 438.000,318.200 438.000 C 318.533 438.000,318.800 437.644,318.800 437.200 C 318.800 436.533,319.067 436.400,320.400 436.400 C 321.556 436.400,322.000 436.233,322.000 435.800 C 322.000 435.381,322.422 435.200,323.400 435.200 C 324.533 435.200,324.800 435.048,324.800 434.400 C 324.800 433.956,325.067 433.600,325.400 433.600 C 325.730 433.600,326.000 433.330,326.000 433.000 C 326.000 432.578,326.426 432.400,327.437 432.400 C 328.538 432.400,328.924 432.213,329.084 431.600 C 329.199 431.160,329.542 430.800,329.847 430.800 C 330.151 430.800,330.400 430.440,330.400 430.000 C 330.400 429.352,330.667 429.200,331.800 429.200 C 332.778 429.200,333.200 429.019,333.200 428.600 C 333.200 428.267,333.556 428.000,334.000 428.000 C 334.533 428.000,334.800 427.733,334.800 427.200 C 334.800 426.552,335.067 426.400,336.200 426.400 C 337.125 426.400,337.600 426.212,337.600 425.847 C 337.600 425.542,337.960 425.199,338.400 425.084 C 338.840 424.969,339.200 424.588,339.200 424.237 C 339.200 423.776,339.586 423.600,340.600 423.600 C 341.733 423.600,342.000 423.448,342.000 422.800 C 342.000 422.356,342.267 422.000,342.600 422.000 C 342.930 422.000,343.200 421.730,343.200 421.400 C 343.200 420.967,343.644 420.800,344.800 420.800 C 346.133 420.800,346.400 420.667,346.400 420.000 C 346.400 419.352,346.667 419.200,347.800 419.200 C 348.778 419.200,349.200 419.019,349.200 418.600 C 349.200 418.270,349.470 418.000,349.800 418.000 C 350.133 418.000,350.400 417.644,350.400 417.200 C 350.400 416.533,350.667 416.400,352.000 416.400 C 353.156 416.400,353.600 416.233,353.600 415.800 C 353.600 415.470,353.870 415.200,354.200 415.200 C 354.533 415.200,354.800 414.844,354.800 414.400 C 354.800 413.752,355.067 413.600,356.200 413.600 C 357.333 413.600,357.600 413.448,357.600 412.800 C 357.600 412.152,357.867 412.000,359.000 412.000 C 359.978 412.000,360.400 411.819,360.400 411.400 C 360.400 411.067,360.756 410.800,361.200 410.800 C 361.733 410.800,362.000 410.533,362.000 410.000 C 362.000 409.352,362.267 409.200,363.400 409.200 C 364.378 409.200,364.800 409.019,364.800 408.600 C 364.800 408.181,365.222 408.000,366.200 408.000 C 367.333 408.000,367.600 407.848,367.600 407.200 C 367.600 406.667,367.867 406.400,368.400 406.400 C 368.933 406.400,369.200 406.133,369.200 405.600 C 369.200 405.067,369.467 404.800,370.000 404.800 C 370.444 404.800,370.800 404.533,370.800 404.200 C 370.800 403.781,371.222 403.600,372.200 403.600 C 373.333 403.600,373.600 403.448,373.600 402.800 C 373.600 402.356,373.867 402.000,374.200 402.000 C 374.530 402.000,374.800 401.730,374.800 401.400 C 374.800 400.981,375.222 400.800,376.200 400.800 C 377.333 400.800,377.600 400.648,377.600 400.000 C 377.600 399.333,377.867 399.200,379.200 399.200 C 380.356 399.200,380.800 399.033,380.800 398.600 C 380.800 398.270,381.070 398.000,381.400 398.000 C 381.733 398.000,382.000 397.644,382.000 397.200 C 382.000 396.552,382.267 396.400,383.400 396.400 C 384.533 396.400,384.800 396.248,384.800 395.600 C 384.800 395.067,385.067 394.800,385.600 394.800 C 386.044 394.800,386.400 394.533,386.400 394.200 C 386.400 393.867,386.756 393.600,387.200 393.600 C 387.733 393.600,388.000 393.333,388.000 392.800 C 388.000 392.356,388.267 392.000,388.600 392.000 C 388.930 392.000,389.200 391.751,389.200 391.447 C 389.200 391.142,389.560 390.799,390.000 390.684 C 390.613 390.524,390.800 390.138,390.800 389.037 C 390.800 388.026,390.978 387.600,391.400 387.600 C 391.730 387.600,392.000 387.330,392.000 387.000 C 392.000 386.667,392.356 386.400,392.800 386.400 C 393.503 386.400,393.600 386.133,393.600 384.200 C 393.600 382.511,393.739 382.000,394.200 382.000 C 394.661 382.000,394.800 381.489,394.800 379.800 C 394.800 377.867,394.897 377.600,395.600 377.600 C 396.291 377.600,396.400 377.333,396.400 375.647 C 396.400 374.030,396.538 373.657,397.200 373.484 C 397.813 373.324,398.000 372.938,398.000 371.837 C 398.000 370.826,398.178 370.400,398.600 370.400 C 399.086 370.400,399.200 369.756,399.200 367.000 C 399.200 365.000,399.365 363.600,399.600 363.600 C 399.866 363.600,400.000 331.333,400.000 267.600 C 400.000 203.867,399.866 171.600,399.600 171.600 C 399.380 171.600,399.200 170.880,399.200 170.000 C 399.200 168.844,399.033 168.400,398.600 168.400 C 398.147 168.400,398.000 167.911,398.000 166.400 C 398.000 164.667,397.893 164.400,397.200 164.400 C 396.497 164.400,396.400 164.133,396.400 162.200 C 396.400 160.267,396.303 160.000,395.600 160.000 C 394.952 160.000,394.800 159.733,394.800 158.600 C 394.800 157.622,394.619 157.200,394.200 157.200 C 393.739 157.200,393.600 156.689,393.600 155.000 C 393.600 153.067,393.503 152.800,392.800 152.800 C 392.152 152.800,392.000 152.533,392.000 151.400 C 392.000 150.422,391.819 150.000,391.400 150.000 C 391.067 150.000,390.800 149.644,390.800 149.200 C 390.800 148.667,390.533 148.400,390.000 148.400 C 389.352 148.400,389.200 148.133,389.200 147.000 C 389.200 146.022,389.019 145.600,388.600 145.600 C 388.270 145.600,388.000 145.313,388.000 144.963 C 388.000 144.612,387.640 144.231,387.200 144.116 C 386.599 143.959,386.400 143.570,386.400 142.553 C 386.400 141.467,386.242 141.200,385.600 141.200 C 385.156 141.200,384.800 140.933,384.800 140.600 C 384.800 140.270,384.530 140.000,384.200 140.000 C 383.767 140.000,383.600 139.556,383.600 138.400 C 383.600 137.067,383.467 136.800,382.800 136.800 C 382.356 136.800,382.000 136.533,382.000 136.200 C 382.000 135.870,381.751 135.600,381.447 135.600 C 381.142 135.600,380.799 135.240,380.684 134.800 C 380.569 134.360,380.188 134.000,379.837 134.000 C 379.487 134.000,379.200 133.730,379.200 133.400 C 379.200 133.067,378.844 132.800,378.400 132.800 C 377.867 132.800,377.600 132.533,377.600 132.000 C 377.600 131.556,377.333 131.200,377.000 131.200 C 376.670 131.200,376.400 130.930,376.400 130.600 C 376.400 130.267,376.044 130.000,375.600 130.000 C 375.067 130.000,374.800 129.733,374.800 129.200 C 374.800 128.760,374.551 128.400,374.247 128.400 C 373.942 128.400,373.599 128.040,373.484 127.600 C 373.332 127.017,372.938 126.800,372.037 126.800 C 371.204 126.800,370.800 126.604,370.800 126.200 C 370.800 125.867,370.444 125.600,370.000 125.600 C 369.467 125.600,369.200 125.333,369.200 124.800 C 369.200 124.267,368.933 124.000,368.400 124.000 C 367.956 124.000,367.600 123.733,367.600 123.400 C 367.600 122.981,367.178 122.800,366.200 122.800 C 365.067 122.800,364.800 122.648,364.800 122.000 C 364.800 121.352,364.533 121.200,363.400 121.200 C 362.267 121.200,362.000 121.048,362.000 120.400 C 362.000 119.752,361.733 119.600,360.600 119.600 C 359.622 119.600,359.200 119.419,359.200 119.000 C 359.200 118.667,358.844 118.400,358.400 118.400 C 357.867 118.400,357.600 118.133,357.600 117.600 C 357.600 116.952,357.333 116.800,356.200 116.800 C 355.222 116.800,354.800 116.619,354.800 116.200 C 354.800 115.781,354.378 115.600,353.400 115.600 C 352.267 115.600,352.000 115.448,352.000 114.800 C 352.000 114.152,351.733 114.000,350.600 114.000 C 349.622 114.000,349.200 113.819,349.200 113.400 C 349.200 113.067,348.844 112.800,348.400 112.800 C 347.867 112.800,347.600 112.533,347.600 112.000 C 347.600 111.352,347.333 111.200,346.200 111.200 C 345.067 111.200,344.800 111.048,344.800 110.400 C 344.800 109.867,344.533 109.600,344.000 109.600 C 343.556 109.600,343.200 109.333,343.200 109.000 C 343.200 108.581,342.778 108.400,341.800 108.400 C 340.667 108.400,340.400 108.248,340.400 107.600 C 340.400 106.952,340.133 106.800,339.000 106.800 C 338.022 106.800,337.600 106.619,337.600 106.200 C 337.600 105.781,337.178 105.600,336.200 105.600 C 335.067 105.600,334.800 105.448,334.800 104.800 C 334.800 104.267,334.533 104.000,334.000 104.000 C 333.467 104.000,333.200 103.733,333.200 103.200 C 333.200 102.552,332.933 102.400,331.800 102.400 C 330.822 102.400,330.400 102.219,330.400 101.800 C 330.400 101.381,329.978 101.200,329.000 101.200 C 327.867 101.200,327.600 101.048,327.600 100.400 C 327.600 99.752,327.333 99.600,326.200 99.600 C 325.222 99.600,324.800 99.419,324.800 99.000 C 324.800 98.667,324.444 98.400,324.000 98.400 C 323.467 98.400,323.200 98.133,323.200 97.600 C 323.200 96.952,322.933 96.800,321.800 96.800 C 320.822 96.800,320.400 96.619,320.400 96.200 C 320.400 95.781,319.978 95.600,319.000 95.600 C 317.867 95.600,317.600 95.448,317.600 94.800 C 317.600 94.152,317.333 94.000,316.200 94.000 C 315.067 94.000,314.800 93.848,314.800 93.200 C 314.800 92.552,314.533 92.400,313.400 92.400 C 312.422 92.400,312.000 92.219,312.000 91.800 C 312.000 91.467,311.644 91.200,311.200 91.200 C 310.667 91.200,310.400 90.933,310.400 90.400 C 310.400 89.752,310.133 89.600,309.000 89.600 C 308.022 89.600,307.600 89.419,307.600 89.000 C 307.600 88.581,307.178 88.400,306.200 88.400 C 305.067 88.400,304.800 88.248,304.800 87.600 C 304.800 87.067,304.533 86.800,304.000 86.800 C 303.467 86.800,303.200 86.533,303.200 86.000 C 303.200 85.352,302.933 85.200,301.800 85.200 C 300.822 85.200,300.400 85.019,300.400 84.600 C 300.400 84.267,300.044 84.000,299.600 84.000 C 299.067 84.000,298.800 83.733,298.800 83.200 C 298.800 82.552,298.533 82.400,297.400 82.400 C 296.422 82.400,296.000 82.219,296.000 81.800 C 296.000 81.381,295.578 81.200,294.600 81.200 C 293.467 81.200,293.200 81.048,293.200 80.400 C 293.200 79.752,292.933 79.600,291.800 79.600 C 290.822 79.600,290.400 79.419,290.400 79.000 C 290.400 78.581,289.978 78.400,289.000 78.400 C 287.867 78.400,287.600 78.248,287.600 77.600 C 287.600 77.067,287.333 76.800,286.800 76.800 C 286.267 76.800,286.000 76.533,286.000 76.000 C 286.000 75.352,285.733 75.200,284.600 75.200 C 283.622 75.200,283.200 75.019,283.200 74.600 C 283.200 74.181,282.778 74.000,281.800 74.000 C 280.667 74.000,280.400 73.848,280.400 73.200 C 280.400 72.552,280.133 72.400,279.000 72.400 C 278.022 72.400,277.600 72.219,277.600 71.800 C 277.600 71.467,277.244 71.200,276.800 71.200 C 276.267 71.200,276.000 70.933,276.000 70.400 C 276.000 69.752,275.733 69.600,274.600 69.600 C 273.467 69.600,273.200 69.448,273.200 68.800 C 273.200 68.152,272.933 68.000,271.800 68.000 C 270.822 68.000,270.400 67.819,270.400 67.400 C 270.400 66.967,269.956 66.800,268.800 66.800 C 267.467 66.800,267.200 66.667,267.200 66.000 C 267.200 65.556,266.933 65.200,266.600 65.200 C 266.270 65.200,266.000 64.930,266.000 64.600 C 266.000 64.181,265.578 64.000,264.600 64.000 C 263.467 64.000,263.200 63.848,263.200 63.200 C 263.200 62.667,262.933 62.400,262.400 62.400 C 261.956 62.400,261.600 62.133,261.600 61.800 C 261.600 61.381,261.178 61.200,260.200 61.200 C 259.067 61.200,258.800 61.048,258.800 60.400 C 258.800 59.752,258.533 59.600,257.400 59.600 C 256.267 59.600,256.000 59.448,256.000 58.800 C 256.000 58.267,255.733 58.000,255.200 58.000 C 254.756 58.000,254.400 57.733,254.400 57.400 C 254.400 56.981,253.978 56.800,253.000 56.800 C 251.867 56.800,251.600 56.648,251.600 56.000 C 251.600 55.352,251.333 55.200,250.200 55.200 C 249.222 55.200,248.800 55.019,248.800 54.600 C 248.800 54.181,248.378 54.000,247.400 54.000 C 246.267 54.000,246.000 53.848,246.000 53.200 C 246.000 52.552,245.733 52.400,244.600 52.400 C 243.586 52.400,243.200 52.224,243.200 51.763 C 243.200 51.412,242.840 51.031,242.400 50.916 C 241.960 50.801,241.600 50.458,241.600 50.153 C 241.600 49.788,241.125 49.600,240.200 49.600 C 239.067 49.600,238.800 49.448,238.800 48.800 C 238.800 48.152,238.533 48.000,237.400 48.000 C 236.422 48.000,236.000 47.819,236.000 47.400 C 236.000 46.967,235.556 46.800,234.400 46.800 C 233.067 46.800,232.800 46.667,232.800 46.000 C 232.800 45.556,232.533 45.200,232.200 45.200 C 231.870 45.200,231.600 44.930,231.600 44.600 C 231.600 44.181,231.178 44.000,230.200 44.000 C 229.067 44.000,228.800 43.848,228.800 43.200 C 228.800 42.558,228.533 42.400,227.447 42.400 C 226.430 42.400,226.041 42.201,225.884 41.600 C 225.724 40.987,225.338 40.800,224.237 40.800 C 223.226 40.800,222.800 40.622,222.800 40.200 C 222.800 39.747,222.311 39.600,220.800 39.600 C 219.067 39.600,218.800 39.493,218.800 38.800 C 218.800 38.011,218.533 38.000,199.400 38.000 C 180.267 38.000,180.000 38.011,180.000 38.800 " stroke="none" fill="#343c44" fill-rule="evenodd"></path><path id="path1" d="" stroke="none" fill="#383c44" fill-rule="evenodd"></path><path id="path2" d="" stroke="none" fill="#383c44" fill-rule="evenodd"></path><path id="path3" d="" stroke="none" fill="#383c44" fill-rule="evenodd"></path><path id="path4" d="" stroke="none" fill="#383c44" fill-rule="evenodd"></path></g></svg>